<svg width="321" height="161" viewBox="0 0 321 161" fill="none" xmlns="http://www.w3.org/2000/svg">
    <path fill-rule="evenodd" clip-rule="evenodd" d="M1.41066 159.542C1.54028 139.003 5.64809 118.687 13.5104 99.7161C21.5007 80.4366 33.2123 62.9249 47.9765 48.1808C62.7407 33.4367 80.2683 21.749 99.5587 13.785C118.849 5.82093 139.524 1.73653 160.404 1.76498C181.284 1.79342 201.959 5.93415 221.249 13.9508C240.54 21.9674 258.067 33.7029 272.831 48.4872C287.596 63.2715 299.307 80.8151 307.298 100.116C315.16 119.108 319.268 139.436 319.397 159.975L241.401 159.869C241.274 149.572 239.184 139.389 235.241 129.865C231.17 120.032 225.204 111.094 217.682 103.562C210.16 96.0295 201.23 90.0506 191.403 85.9664C181.575 81.8822 171.041 79.7727 160.404 79.7582C149.766 79.7437 139.233 81.8246 129.405 85.882C119.578 89.9394 110.648 95.8939 103.126 103.405C95.6041 110.917 89.6375 119.839 85.5667 129.661C81.6239 139.174 79.5344 149.352 79.4069 159.648L1.41066 159.542ZM0.40728 159.54C0.536898 138.87 4.67068 118.423 12.5834 99.3308C20.6241 79.9297 32.4096 62.3075 47.267 47.4704C62.1244 32.6332 79.7626 20.8717 99.1747 12.8574C118.587 4.84315 139.393 0.732969 160.404 0.761594C181.415 0.79022 202.221 4.95709 221.633 13.0243C241.045 21.0915 258.684 32.901 273.541 47.7787C288.398 62.6563 300.184 80.3106 308.225 99.7336C316.137 118.847 320.271 139.306 320.401 159.976C320.403 160.311 320.404 160.645 320.404 160.98L240.404 160.871C240.404 150.365 238.335 139.959 234.314 130.248C230.294 120.536 224.401 111.709 216.972 104.27C209.544 96.8313 200.725 90.9265 191.019 86.8929C181.313 82.8593 170.91 80.7759 160.404 80.7616C149.898 80.7473 139.495 82.8024 129.789 86.8095C120.083 90.8166 111.264 96.6974 103.835 104.116C96.4068 111.535 90.514 120.346 86.4937 130.046C82.4733 139.747 80.404 150.147 80.404 160.653L0.404126 160.544C0.404126 160.209 0.405198 159.875 0.40728 159.54Z" fill="black"/>
</svg>
