<svg width="315" height="315" viewBox="0 0 315 315" fill="none" xmlns="http://www.w3.org/2000/svg">
    <path d="M157.5 0L167.386 31.8884L182.138 1.93909L186.914 34.9814L206.17 7.7086L205.718 41.0912L229.004 17.1665L223.335 50.0673L250.076 30.0798L239.33 61.6889L268.869 46.1307L253.311 75.6695L284.92 64.9238L264.933 91.6652L297.834 85.9965L273.909 109.282L307.291 108.83L280.019 128.086L313.061 132.862L283.112 147.614L315 157.5L283.112 167.386L313.061 182.138L280.019 186.914L307.291 206.17L273.909 205.718L297.834 229.004L264.933 223.335L284.92 250.076L253.311 239.33L268.869 268.869L239.33 253.311L250.076 284.92L223.335 264.933L229.004 297.834L205.718 273.909L206.17 307.291L186.914 280.019L182.138 313.061L167.386 283.112L157.5 315L147.614 283.112L132.862 313.061L128.086 280.019L108.83 307.291L109.282 273.909L85.9965 297.834L91.6652 264.933L64.9238 284.92L75.6695 253.311L46.1307 268.869L61.6889 239.33L30.0798 250.076L50.0673 223.335L17.1665 229.004L41.0912 205.718L7.7086 206.17L34.9814 186.914L1.93909 182.138L31.8884 167.386L0 157.5L31.8884 147.614L1.93909 132.862L34.9814 128.086L7.7086 108.83L41.0912 109.282L17.1665 85.9965L50.0673 91.6652L30.0798 64.9238L61.6889 75.6695L46.1307 46.1307L75.6695 61.6889L64.9238 30.0798L91.6652 50.0673L85.9965 17.1665L109.282 41.0912L108.83 7.7086L128.086 34.9814L132.862 1.93909L147.614 31.8884L157.5 0Z" fill="black"/>
</svg>
