<svg width="301" height="161" viewBox="0 0 301 161" fill="none" xmlns="http://www.w3.org/2000/svg">
    <path d="M234.925 0.135254C218.818 0.135254 204.262 7.63042 193.272 19.9642C181.733 7.63042 166.842 0.135254 150.735 0.135254C133.64 0.135254 118.315 8.57918 107.157 22.2413C95.4888 8.57918 79.7867 0.135254 62.6918 0.135254C27.4151 0.135254 -0.342229 35.9982 0.641878 80.1154C1.62598 124.232 30.9833 160.095 66.26 160.095C83.3548 160.095 98.6803 151.652 109.838 137.989C121.605 151.652 137.307 160.095 154.402 160.095C170.509 160.095 185.065 152.6 196.055 140.266C207.595 152.6 222.485 160.095 238.592 160.095C273.869 160.095 301.628 124.327 300.642 80.1154C299.559 35.9982 270.202 0.135254 234.925 0.135254Z" fill="black"/>
</svg>
