<svg width="28" height="29" viewBox="0 0 28 29" fill="none" xmlns="http://www.w3.org/2000/svg"><path d="M24.5219 2.52195L25.3416 1.70489C25.3416 1.70486 25.3417 1.70484 25.3417 1.70481C25.4293 1.61754 25.5337 1.54891 25.6486 1.50305C25.7635 1.45718 25.8864 1.43506 26.0101 1.438C26.1338 1.44095 26.2556 1.46892 26.3682 1.52021C26.4802 1.57124 26.5808 1.64432 26.6639 1.73507C26.8223 1.91195 26.9063 2.14311 26.8985 2.38044C26.8907 2.61837 26.7911 2.84406 26.6207 3.01027L26.6206 3.01025L26.617 3.01381L25.815 3.81181L24.5219 2.52195ZM23.4038 5.42947V4.92947H22.9038H22.1135L23.0125 4.03204L24.3012 5.32075L23.4038 6.22015V5.42947Z" stroke="black"/><path d="M10.583 17.7508H12.6038L22.9041 7.4293V5.42969H20.9051L10.583 15.73V17.7508Z" fill="black"/><path d="M23.4846 12.127V25.0646C23.4846 25.434 23.4118 25.7997 23.2705 26.1409C23.1291 26.4822 22.922 26.7922 22.6608 27.0534C22.3996 27.3145 22.0896 27.5217 21.7484 27.6631C21.4071 27.8044 21.0414 27.8771 20.672 27.8771H3.7969C3.05097 27.8771 2.33559 27.5808 1.80814 27.0534C1.28069 26.5259 0.984375 25.8105 0.984375 25.0646V8.18948C0.984375 7.44355 1.28069 6.72817 1.80814 6.20072C2.33559 5.67327 3.05097 5.37695 3.7969 5.37695H15.5729" stroke="black" stroke-linecap="round" stroke-linejoin="round"/></svg>