<svg width="27" height="28" viewBox="0 0 27 28" fill="none" xmlns="http://www.w3.org/2000/svg">
<mask id="path-1-inside-1_416_682" fill="white">
<path fill-rule="evenodd" clip-rule="evenodd" d="M3.38955 2.03235H20.2951C21.4969 2.03235 22.4787 2.97463 22.5419 4.16072H6.73414C4.88695 4.16072 3.38952 5.65816 3.38952 7.50534V23.4379C2.14688 23.4379 1.13953 22.4306 1.13953 21.1879V4.28237C1.13953 3.03972 2.14689 2.03235 3.38955 2.03235ZM3.39169 24.5325H3.38955C1.54236 24.5325 0.0449219 23.0351 0.0449219 21.1879V4.28237C0.0449219 2.43518 1.54236 0.937744 3.38955 0.937744H20.2951C22.1016 0.937744 23.5735 2.36988 23.6375 4.16072H23.6397C25.4869 4.16072 26.9843 5.65816 26.9843 7.50534V24.4109C26.9843 26.2581 25.4869 27.7555 23.6397 27.7555H6.73414C4.92768 27.7555 3.45571 26.3234 3.39169 24.5325Z"/>
</mask>
<path d="M22.5419 4.16072V5.16072H23.5966L23.5405 4.10752L22.5419 4.16072ZM3.38952 23.4379L3.3895 24.4379L4.38951 24.4379V23.4379H3.38952ZM3.39169 24.5325L4.39105 24.4968L4.35657 23.5325H3.39169V24.5325ZM23.6375 4.16072L22.6382 4.19645L22.6727 5.16072H23.6375V4.16072ZM20.2951 1.03235H3.38955V3.03235H20.2951V1.03235ZM23.5405 4.10752C23.4491 2.39343 22.0314 1.03235 20.2951 1.03235V3.03235C20.9625 3.03235 21.5082 3.55584 21.5433 4.21392L23.5405 4.10752ZM6.73414 5.16072H22.5419V3.16072H6.73414V5.16072ZM4.38951 7.50534C4.38951 6.21044 5.43924 5.16072 6.73414 5.16072V3.16072C4.33467 3.16072 2.38952 5.10587 2.38952 7.50534H4.38951ZM4.38951 23.4379V7.50534H2.38952V23.4379H4.38951ZM0.139526 21.1879C0.139526 22.9828 1.59459 24.4379 3.3895 24.4379L3.38953 22.4379C2.69917 22.4379 2.13953 21.8783 2.13953 21.1879H0.139526ZM0.139526 4.28237V21.1879H2.13953V4.28237H0.139526ZM3.38955 1.03235C1.59461 1.03235 0.139526 2.48743 0.139526 4.28237H2.13953C2.13953 3.592 2.69918 3.03235 3.38955 3.03235V1.03235ZM3.38955 25.5325H3.39169V23.5325H3.38955V25.5325ZM-0.955078 21.1879C-0.955078 23.5874 0.990079 25.5325 3.38955 25.5325V23.5325C2.09465 23.5325 1.04492 22.4828 1.04492 21.1879H-0.955078ZM-0.955078 4.28237V21.1879H1.04492V4.28237H-0.955078ZM3.38955 -0.0622559C0.990075 -0.0622559 -0.955078 1.8829 -0.955078 4.28237H1.04492C1.04492 2.98747 2.09465 1.93774 3.38955 1.93774V-0.0622559ZM20.2951 -0.0622559H3.38955V1.93774H20.2951V-0.0622559ZM24.6369 4.12499C24.5537 1.79806 22.6419 -0.0622559 20.2951 -0.0622559V1.93774C21.5612 1.93774 22.5933 2.94171 22.6382 4.19645L24.6369 4.12499ZM23.6375 5.16072H23.6397V3.16072H23.6375V5.16072ZM23.6397 5.16072C24.9346 5.16072 25.9843 6.21044 25.9843 7.50534H27.9843C27.9843 5.10587 26.0392 3.16072 23.6397 3.16072V5.16072ZM25.9843 7.50534V24.4109H27.9843V7.50534H25.9843ZM25.9843 24.4109C25.9843 25.7058 24.9346 26.7555 23.6397 26.7555V28.7555C26.0392 28.7555 27.9843 26.8104 27.9843 24.4109H25.9843ZM23.6397 26.7555H6.73414V28.7555H23.6397V26.7555ZM6.73414 26.7555C5.468 26.7555 4.43591 25.7515 4.39105 24.4968L2.39232 24.5683C2.47552 26.8952 4.38736 28.7555 6.73414 28.7555V26.7555Z" fill="black" mask="url(#path-1-inside-1_416_682)"/>
</svg>
