<svg width="24" height="28" viewBox="0 0 24 28" fill="none" xmlns="http://www.w3.org/2000/svg">
<path d="M17.397 6.40553C17.397 6.40553 14.7607 5.34014 11.5243 5.49424C9.39797 5.59549 7.97506 6.29644 6.19895 7.4832C4.42283 8.66996 3.03852 10.3568 2.22106 12.3303C1.40361 14.3038 1.18972 16.4754 1.60646 18.5704C2.02319 20.6655 3.05183 22.59 4.56229 24.1004C6.07275 25.6109 7.9972 26.6395 10.0923 27.0563C12.1873 27.473 14.3589 27.2591 16.3325 26.4417C18.306 25.6242 19.9928 24.2399 21.1795 22.4638C22.3663 20.6877 22.9997 18.5995 22.9997 16.4634" stroke="black" stroke-miterlimit="10" stroke-linecap="square"/>
<path d="M12.1992 0.937744L17.5994 6.33794L12.1992 11.7381" stroke="black" stroke-miterlimit="10" stroke-linecap="square"/>
</svg>
